<?xml version="1.0" encoding="UTF-8"?>
<svg version="1.1" xmlns="http://www.w3.org/2000/svg" width="128" height="128">
<path d="M0 0 C42.24 0 84.48 0 128 0 C128 42.24 128 84.48 128 128 C85.76 128 43.52 128 0 128 C0 85.76 0 43.52 0 0 Z " fill="#F8F6F3" transform="translate(0,0)"/>
<path d="M0 0 C4.90840137 0.68172241 8.77455404 1.66951582 12.1875 5.375 C13.69219812 7.55421797 14.85418454 9.62760676 16 12 C16.12117188 11.30132812 16.24234375 10.60265625 16.3671875 9.8828125 C16.53476563 8.97273438 16.70234375 8.06265625 16.875 7.125 C17.03742188 6.22007813 17.19984375 5.31515625 17.3671875 4.3828125 C18 2 18 2 20 0 C20.99 0 21.98 0 23 0 C23.41420607 4.03850917 22.85846065 6.49902659 21 10 C18.40189628 15.32383358 18.7269722 20.33637784 18.95703125 26.15625 C18.97121094 27.0946875 18.98539063 28.033125 19 29 C18 30 18 30 14.4375 30.0625 C13.303125 30.041875 12.16875 30.02125 11 30 C11.33 30.66 11.66 31.32 12 32 C12.66 31.67 13.32 31.34 14 31 C15.99960012 30.960008 18.00047242 30.95653201 20 31 C20.79953138 34.28696233 21.09658936 35.71023192 20 39 C17.38058783 40.74627478 15.96175123 41.38722388 13 42 C14.52206009 44.62901288 15.84365964 46.84365964 18 49 C20.60280568 48.67958603 20.60280568 48.67958603 23 48 C22.94199219 47.03578125 22.88398437 46.0715625 22.82421875 45.078125 C22.77910156 43.81484375 22.73398438 42.5515625 22.6875 41.25 C22.62949219 39.99703125 22.57148437 38.7440625 22.51171875 37.453125 C23 34 23 34 25.51953125 31.546875 C26.33808594 31.03640625 27.15664062 30.5259375 28 30 C30 32 30 32 30.22705078 34.98095703 C30.21657715 36.22731934 30.20610352 37.47368164 30.1953125 38.7578125 C30.1924826 39.42086395 30.18965271 40.08391541 30.18673706 40.76705933 C30.17553435 42.88655583 30.15043051 45.00563104 30.125 47.125 C30.11497028 48.56119182 30.10584441 49.99739025 30.09765625 51.43359375 C30.075595 54.95586628 30.04106494 58.47789203 30 62 C29.34 62 28.68 62 28 62 C28 62.66 28 63.32 28 64 C30.64 64 33.28 64 36 64 C36 64.66 36 65.32 36 66 C34.02 66.495 34.02 66.495 32 67 C32 67.66 32 68.32 32 69 C29.36 69 26.72 69 24 69 C23.34 67.35 22.68 65.7 22 64 C21.50371094 64.42152344 21.00742188 64.84304687 20.49609375 65.27734375 C16.01498454 68.8911415 12.93187624 70.77615561 7 71 C6.154375 71.0825 5.30875 71.165 4.4375 71.25 C1.18295192 70.9162002 -1.16769031 69.58082401 -4 68 C-4 67.34 -4 66.68 -4 66 C-4.66 66 -5.32 66 -6 66 C-6.99 64.02 -7.98 62.04 -9 60 C-9.33 60 -9.66 60 -10 60 C-11.09656843 52.9317577 -11.85359822 46.34418742 -8 40 C-5.5500622 37.62943384 -2.88401724 35.80461898 0 34 C3.69029283 31.73398315 3.69029283 31.73398315 5.59375 28.046875 C6.03256433 25.60346137 6.03256433 25.60346137 6 22 C5.34 21.34 4.68 20.68 4 20 C3.7265625 17.828125 3.7265625 17.828125 3.625 15.25 C3.24389625 10.26688876 1.97052745 7.92876211 -1 4 C-1 1 -1 1 0 0 Z " fill="#F2EEE6" transform="translate(60,32)"/>
<path d="M0 0 C1.32 0.66 2.64 1.32 4 2 C4.02469321 6.2358357 4.04285671 10.47163342 4.05493164 14.70751953 C4.05996474 16.1489332 4.06679173 17.59034176 4.07543945 19.03173828 C4.08754983 21.10190085 4.09323847 23.17199601 4.09765625 25.2421875 C4.10289307 26.4885498 4.10812988 27.73491211 4.11352539 29.01904297 C4 32 4 32 3 34 C8.94 34 14.88 34 21 34 C19 38 19 38 17.1171875 39.01171875 C4.31809401 42.86928525 4.31809401 42.86928525 -0.5 41.0625 C-1.2425 40.5365625 -1.2425 40.5365625 -2 40 C-2 38.68 -2 37.36 -2 36 C-2.99 35.67 -3.98 35.34 -5 35 C-4.505 34.505 -4.505 34.505 -4 34 C-2.99455862 28.74936169 -2.91555197 23.49892709 -3.30078125 18.18359375 C-3.39190186 16.91878174 -3.39190186 16.91878174 -3.48486328 15.62841797 C-3.61864564 13.93437872 -3.77160365 12.2417314 -3.94482422 10.55126953 C-4.42625548 4.55236656 -4.42625548 4.55236656 -2.01953125 1.43359375 C-1.35308594 0.96050781 -0.68664062 0.48742188 0 0 Z " fill="#D0C7BC" transform="translate(31,32)"/>
<path d="M0 0 C7.99651568 -0.6271777 7.99651568 -0.6271777 12 1.875 C15.40910299 5.49717193 15.24484018 8.61174902 15.3125 13.375 C15.34150391 14.04789063 15.37050781 14.72078125 15.40039062 15.4140625 C15.44270062 18.72075135 15.22225272 20.67472661 13.33984375 23.4296875 C10.50610431 25.33146255 8.64011102 25.58856614 5.25 25.75 C4.26515625 25.80671875 3.2803125 25.8634375 2.265625 25.921875 C1.51796875 25.94765625 0.7703125 25.9734375 0 26 C0.01160156 25.21753906 0.02320313 24.43507813 0.03515625 23.62890625 C0.04417969 22.61699219 0.05320313 21.60507812 0.0625 20.5625 C0.07410156 19.55316406 0.08570313 18.54382813 0.09765625 17.50390625 C0.28612676 15.05978933 0.28612676 15.05978933 -1 14 C-0.90968426 11.64305046 -0.75311872 9.28846418 -0.5625 6.9375 C-0.46066406 5.64714844 -0.35882813 4.35679688 -0.25390625 3.02734375 C-0.17011719 2.02832031 -0.08632813 1.02929688 0 0 Z " fill="#F6F3ED" transform="translate(42,36)"/>
<path d="M0 0 C0.99 0.66 1.98 1.32 3 2 C3.34057617 4.98095703 3.34057617 4.98095703 3.29296875 8.7578125 C3.28872391 9.42086395 3.28447906 10.08391541 3.28010559 10.76705933 C3.26329971 12.88678441 3.22564701 15.00556188 3.1875 17.125 C3.17245549 18.56118419 3.15876668 19.99738328 3.14648438 21.43359375 C3.1133909 24.95603764 3.0615968 28.47792636 3 32 C2.34 32 1.68 32 1 32 C1 32.66 1 33.32 1 34 C3.64 34 6.28 34 9 34 C9 34.66 9 35.32 9 36 C7.02 36.495 7.02 36.495 5 37 C5 37.66 5 38.32 5 39 C2.36 39 -0.28 39 -3 39 C-3.28875 38.195625 -3.5775 37.39125 -3.875 36.5625 C-4.73262568 33.8673532 -4.73262568 33.8673532 -7 33 C-8.99551782 32.64080679 -10.99548879 32.30503431 -13 32 C-12.34 31.34 -11.68 30.68 -11 30 C-10.53709779 27.33757179 -10.53709779 27.33757179 -10.375 24.375 C-10.30023438 23.37210938 -10.22546875 22.36921875 -10.1484375 21.3359375 C-10.09945312 20.56507812 -10.05046875 19.79421875 -10 19 C-8.02 18.67 -6.04 18.34 -4 18 C-4.04640625 17.03578125 -4.0928125 16.0715625 -4.140625 15.078125 C-4.17671875 13.81484375 -4.2128125 12.5515625 -4.25 11.25 C-4.29640625 9.99703125 -4.3428125 8.7440625 -4.390625 7.453125 C-4 4 -4 4 -1.984375 1.546875 C-1.32953125 1.03640625 -0.6746875 0.5259375 0 0 Z " fill="#EFEAE1" transform="translate(87,62)"/>
<path d="M0 0 C0 3 0 3 -0.9765625 4.890625 C-3.12633241 9.32144847 -2.7365762 14.66684511 -1.27734375 19.2890625 C0.69105566 23.54463046 2.77992793 26.75528081 7 29 C10.66257078 29.60525534 14.29230225 29.87013318 18 30 C17.67 30.66 17.34 31.32 17 32 C11.47366831 33.84211056 5.72711561 33.93919442 0 33 C-2.90386627 30.75563857 -4.44627053 28.29258416 -6 25 C-6.33 24.34 -6.66 23.68 -7 23 C-7.77938468 14.93636616 -6.60005189 8.56578544 -1.8125 2 C-1.214375 1.34 -0.61625 0.68 0 0 Z " fill="#AB9C8B" transform="translate(60,66)"/>
<path d="M0 0 C2.64 0 5.28 0 8 0 C7.67 0.99 7.34 1.98 7 3 C6.91641042 5.21089945 6.89268236 7.42426078 6.90234375 9.63671875 C6.90556641 10.93544922 6.90878906 12.23417969 6.91210938 13.57226562 C6.92046469 14.94401108 6.92892963 16.31575587 6.9375 17.6875 C6.94251665 19.07096195 6.94707927 20.45442563 6.95117188 21.83789062 C6.96297471 25.22530395 6.97943981 28.61263033 7 32 C7.66 32 8.32 32 9 32 C9 32.66 9 33.32 9 34 C5.7 33.67 2.4 33.34 -1 33 C-1 32.34 -1 31.68 -1 31 C-0.34 31 0.32 31 1 31 C0.67 20.77 0.34 10.54 0 0 Z " fill="#F7F1EB" transform="translate(89,63)"/>
<path d="M0 0 C0.99 0 1.98 0 3 0 C3.41420607 4.03850917 2.85846065 6.49902659 1 10 C-1.59810372 15.32383358 -1.2730278 20.33637784 -1.04296875 26.15625 C-1.02878906 27.0946875 -1.01460937 28.033125 -1 29 C-2 30 -2 30 -4.5625 30.0625 C-5.366875 30.041875 -6.17125 30.02125 -7 30 C-7.01417969 28.94941406 -7.02835937 27.89882813 -7.04296875 26.81640625 C-7.2610961 19.21634257 -7.46664729 13.15149158 -11.94140625 6.69921875 C-13 5 -13 5 -13 2 C-9.52867905 3.40929697 -8.11906726 4.90605083 -6.25 8.125 C-5.60804687 9.21167969 -5.60804687 9.21167969 -4.953125 10.3203125 C-4.48132813 11.15175781 -4.48132813 11.15175781 -4 12 C-3.87882812 11.30132812 -3.75765625 10.60265625 -3.6328125 9.8828125 C-3.46523437 8.97273438 -3.29765625 8.06265625 -3.125 7.125 C-2.96257812 6.22007813 -2.80015625 5.31515625 -2.6328125 4.3828125 C-2 2 -2 2 0 0 Z " fill="#F1EBE3" transform="translate(80,32)"/>
<path d="M0 0 C0.99 0.66 1.98 1.32 3 2 C3.34057617 4.98095703 3.34057617 4.98095703 3.29296875 8.7578125 C3.28872391 9.42086395 3.28447906 10.08391541 3.28010559 10.76705933 C3.26329971 12.88678441 3.22564701 15.00556188 3.1875 17.125 C3.17245549 18.56118419 3.15876668 19.99738328 3.14648438 21.43359375 C3.1133909 24.95603764 3.0615968 28.47792636 3 32 C2.34 32 1.68 32 1 32 C1 32.66 1 33.32 1 34 C3.64 34 6.28 34 9 34 C9 34.66 9 35.32 9 36 C6.59454362 37.20272819 5.05003047 37.10071472 2.375 37.0625 C1.14910156 37.04896484 1.14910156 37.04896484 -0.1015625 37.03515625 C-0.72804688 37.02355469 -1.35453125 37.01195312 -2 37 C-2.0493651 32.05209823 -2.08570269 27.10433917 -2.10986328 22.15625 C-2.11993317 20.47230534 -2.13358988 18.78837821 -2.15087891 17.10449219 C-2.17508426 14.68680499 -2.18647296 12.26934857 -2.1953125 9.8515625 C-2.20563507 9.0963028 -2.21595764 8.34104309 -2.22659302 7.56289673 C-2.22699318 5.7070602 -2.12222716 3.8518072 -2 2 C-1.34 1.34 -0.68 0.68 0 0 Z " fill="#A5937E" transform="translate(87,62)"/>
<path d="M0 0 C1.32 0.66 2.64 1.32 4 2 C4.04946113 6.21751282 4.08574827 10.43487168 4.10986328 14.65258789 C4.119917 16.08718812 4.13356194 17.52176789 4.15087891 18.95629883 C4.17515549 21.01909438 4.18648919 23.08161885 4.1953125 25.14453125 C4.20578613 26.38565674 4.21625977 27.62678223 4.22705078 28.90551758 C4 32 4 32 2 35 C6.62 35 11.24 35 16 35 C11.89441282 37.05279359 10.19793315 37.2216942 5.75 37.125 C4.67234375 37.10695312 3.5946875 37.08890625 2.484375 37.0703125 C1.66453125 37.04710937 0.8446875 37.02390625 0 37 C-0.16723554 31.89154206 -0.32783286 26.78293596 -0.48217773 21.67407227 C-0.53567262 19.93475677 -0.59100755 18.19549688 -0.64819336 16.45629883 C-0.72989627 13.96187334 -0.80506164 11.46732517 -0.87890625 8.97265625 C-0.90594131 8.19036148 -0.93297638 7.40806671 -0.96083069 6.60206604 C-1.01288386 4.73539067 -1.01187025 2.86736326 -1 1 C-0.67 0.67 -0.34 0.34 0 0 Z " fill="#736556" transform="translate(31,32)"/>
<path d="M0 0 C2.42578125 0.10546875 2.42578125 0.10546875 5 1 C6.73046875 2.92578125 6.73046875 2.92578125 8.1875 5.3125 C8.67605469 6.09238281 9.16460937 6.87226562 9.66796875 7.67578125 C10.10753906 8.44277344 10.54710938 9.20976563 11 10 C11.38542969 10.60714844 11.77085938 11.21429688 12.16796875 11.83984375 C13.38670372 15.00397727 13.18744691 17.87786706 13.125 21.25 C13.10695313 22.51328125 13.08890625 23.7765625 13.0703125 25.078125 C13.04710938 26.04234375 13.02390625 27.0065625 13 28 C14.32 28.33 15.64 28.66 17 29 C14.69 29 12.38 29 10 29 C9.95101562 28.33613281 9.90203125 27.67226563 9.8515625 26.98828125 C9.40260125 20.23448688 9.40260125 20.23448688 7 14 C6.01 13.67 5.02 13.34 4 13 C2.90234375 11.2578125 2.90234375 11.2578125 1.9375 9.125 C0.74888621 6.53773626 -0.40473992 4.39289013 -2 2 C-1.34 1.34 -0.68 0.68 0 0 Z " fill="#BBAB98" transform="translate(60,32)"/>
<path d="M0 0 C0.99 0.33 1.98 0.66 3 1 C2.505 2.11375 2.01 3.2275 1.5 4.375 C-0.30818911 9.25451512 -0.80300758 13.84520939 0 19 C1.72410116 22.42223531 1.72410116 22.42223531 4 25 C4.66 25.99 5.32 26.98 6 28 C8.42521494 28.58189266 8.42521494 28.58189266 11.125 28.6875 C12.49011719 28.78611328 12.49011719 28.78611328 13.8828125 28.88671875 C14.58148438 28.92410156 15.28015625 28.96148437 16 29 C16 29.66 16 30.32 16 31 C14.22925083 31.02705729 12.45838289 31.04642195 10.6875 31.0625 C9.70136719 31.07410156 8.71523438 31.08570312 7.69921875 31.09765625 C5 31 5 31 2 30 C2 29.34 2 28.68 2 28 C1.34 28 0.68 28 0 28 C-0.99 26.02 -1.98 24.04 -3 22 C-3.33 22 -3.66 22 -4 22 C-5.13076902 14.71130811 -5.3570184 8.72882542 -2 2 C-1.34 1.34 -0.68 0.68 0 0 Z " fill="#C8BEB1" transform="translate(54,70)"/>
<path d="M0 0 C7.99651568 -0.6271777 7.99651568 -0.6271777 12 1.875 C15.67400379 5.77862903 15.26152125 9.11770181 15.234375 14.2890625 C14.95573028 17.51205305 14.06117366 19.50941516 12 22 C10.79681927 19.59363854 11.07989659 18.46235456 11.3125 15.8125 C11.37428129 11.0321729 9.95291469 8.68717235 6.66796875 5.30859375 C4.51607169 3.62033727 2.72454216 3.08013359 0 3 C0 2.01 0 1.02 0 0 Z " fill="#867562" transform="translate(42,36)"/>
<path d="M0 0 C0.33 0 0.66 0 1 0 C1.02578125 0.78503906 1.0515625 1.57007812 1.078125 2.37890625 C1.43687374 9.02391133 1.91026728 13.66062672 6 19 C8.40858714 20.8624438 8.40858714 20.8624438 11 22 C12.33429881 22.6647322 13.66779756 23.33107632 15 24 C10.29300559 24.47069944 6.38992621 24.85562871 2.5625 21.75 C-1.85206044 17.01242294 -2.31515949 13.73858099 -2.203125 7.41796875 C-1.97048543 4.64866306 -1.30833805 2.45313384 0 0 Z " fill="#7F7060" transform="translate(55,74)"/>
<path d="M0 0 C2.33512206 3.50268309 2.24606669 4.92085789 2.23046875 9.05859375 C2.22853516 10.24904297 2.22660156 11.43949219 2.22460938 12.66601562 C2.21236328 13.91060547 2.20011719 15.15519531 2.1875 16.4375 C2.18685547 17.67822266 2.18621094 18.91894531 2.18554688 20.19726562 C2.1365927 30.25462945 2.1365927 30.25462945 1 34 C3.31 34 5.62 34 8 34 C8 34.66 8 35.32 8 36 C5.36 36 2.72 36 0 36 C-1.39828933 6.74005206 -1.39828933 6.74005206 -1 1 C-0.67 0.67 -0.34 0.34 0 0 Z " fill="#DAD0C3" transform="translate(84,65)"/>
<path d="M0 0 C0.33 0 0.66 0 1 0 C1.33 8.25 1.66 16.5 2 25 C2.99 24.34 3.98 23.68 5 23 C5.33 24.98 5.66 26.96 6 29 C6.66 29 7.32 29 8 29 C8 29.66 8 30.32 8 31 C4.7 30.67 1.4 30.34 -2 30 C-2 29.34 -2 28.68 -2 28 C-1.34 28 -0.68 28 0 28 C0 18.76 0 9.52 0 0 Z " fill="#EEE7DD" transform="translate(90,66)"/>
<path d="M0 0 C0.99 0.33 1.98 0.66 3 1 C2.01 3.64 1.02 6.28 0 9 C-0.66 9 -1.32 9 -2 9 C-2 12.96 -2 16.92 -2 21 C-2.66 21.33 -3.32 21.66 -4 22 C-5.13076902 14.71130811 -5.3570184 8.72882542 -2 2 C-1.34 1.34 -0.68 0.68 0 0 Z " fill="#DAD2C8" transform="translate(54,70)"/>
<path d="M0 0 C0.33 0 0.66 0 1 0 C1.33 9.24 1.66 18.48 2 28 C8.93 28.495 8.93 28.495 16 29 C12 31 12 31 0 31 C0 20.77 0 10.54 0 0 Z " fill="#938575" transform="translate(31,38)"/>
<path d="M0 0 C3 1 3 1 4.625 2.875 C6.63946542 7.45333049 6.74836149 12.04532442 7 17 C5.68 17 4.36 17 3 17 C2.34 13.7 1.68 10.4 1 7 C0.67 7 0.34 7 0 7 C0 4.69 0 2.38 0 0 Z " fill="#D8CEC2" transform="translate(64,45)"/>
<path d="M0 0 C2.9370049 -0.26377246 4.51769109 -0.31718574 7.01953125 1.328125 C11.0530705 5.65165727 12.45171816 8.49993706 12.4375 14.5 C12.32617346 16.33575186 12.19205227 18.17093073 12 20 C11.34 20 10.68 20 10 20 C9.89042969 19.16855469 9.78085937 18.33710937 9.66796875 17.48046875 C9.50941406 16.39378906 9.35085937 15.30710937 9.1875 14.1875 C9.03667969 13.10855469 8.88585938 12.02960937 8.73046875 10.91796875 C7.96756563 7.87043597 7.29820712 6.99597714 5 5 C5 4.34 5 3.68 5 3 C3.35 2.67 1.7 2.34 0 2 C0 1.34 0 0.68 0 0 Z " fill="#C9BEB0" transform="translate(42,39)"/>
<path d="M0 0 C3.2270465 2.74298952 5.64306342 5.99669954 7 10 C7.33034894 14.35552374 7.23596354 18.64122901 7 23 C6.34 23 5.68 23 5 23 C4.96261719 22.33613281 4.92523438 21.67226563 4.88671875 20.98828125 C4.4945117 15.72040229 3.84388036 12.50281056 1 8 C0.46079436 5.324129 0.23115983 2.72768595 0 0 Z " fill="#97856F" transform="translate(65,38)"/>
<path d="M0 0 C1.32 0.33 2.64 0.66 4 1 C4 4.63 4 8.26 4 12 C2.68 12 1.36 12 0 12 C-0.5745952 8.26513121 -1 4.78706732 -1 1 C-0.67 0.67 -0.34 0.34 0 0 Z " fill="#B09F8B" transform="translate(73,79)"/>
<path d="M0 0 C0.78246094 -0.01417969 1.56492187 -0.02835937 2.37109375 -0.04296875 C4.5625 0.1875 4.5625 0.1875 7.5625 2.1875 C7.2325 3.1775 6.9025 4.1675 6.5625 5.1875 C2.21785464 4.57924965 -2.11301867 3.92582608 -6.4375 3.1875 C-6.4375 2.5275 -6.4375 1.8675 -6.4375 1.1875 C-4.0978331 0.01766655 -2.60358473 0.0213759 0 0 Z " fill="#A69580" transform="translate(73.4375,65.8125)"/>
<path d="M0 0 C0.66 0.33 1.32 0.66 2 1 C-3.47134658 5.68972564 -9.88829009 6.76110535 -17 7 C-19.3984375 6.0390625 -19.3984375 6.0390625 -21 5 C-21 4.67 -21 4.34 -21 4 C-20.154375 3.96261719 -19.30875 3.92523438 -18.4375 3.88671875 C-11.63570399 3.49252375 -6.27042579 2.60281825 0 0 Z " fill="#E7E1D7" transform="translate(50,67)"/>
<path d="M0 0 C0.66 0 1.32 0 2 0 C5.04489479 3.87532064 6.77414826 7.03126176 7 12 C6.34 12.66 5.68 13.32 5 14 C4.66226563 13.38511719 4.32453125 12.77023438 3.9765625 12.13671875 C3.53054687 11.32847656 3.08453125 10.52023438 2.625 9.6875 C2.18414062 8.88699219 1.74328125 8.08648437 1.2890625 7.26171875 C0.26486665 5.46472057 -0.85267138 3.72099292 -2 2 C-1.34 1.34 -0.68 0.68 0 0 Z " fill="#B1A08B" transform="translate(60,32)"/>
<path d="M0 0 C-6.15034169 8.44646925 -6.15034169 8.44646925 -10 12 C-11 10 -11 10 -10.51171875 7.87109375 C-10.23972656 7.06800781 -9.96773438 6.26492187 -9.6875 5.4375 C-9.42324219 4.63183594 -9.15898438 3.82617188 -8.88671875 2.99609375 C-7.12035972 -0.9801594 -3.86907963 -0.08411043 0 0 Z " fill="#F3EEE7" transform="translate(91,32)"/>
<path d="M0 0 C2.13586678 3.20380017 2.23132175 4.01939967 2.125 7.6875 C2.10695312 8.49574219 2.08890625 9.30398437 2.0703125 10.13671875 C2.04710937 10.75160156 2.02390625 11.36648437 2 12 C2.66 12.33 3.32 12.66 4 13 C2.35 13.33 0.7 13.66 -1 14 C-0.67 9.38 -0.34 4.76 0 0 Z M6 6 C6.33 7.32 6.66 8.64 7 10 C6.01 10.66 5.02 11.32 4 12 C4.66 10.02 5.32 8.04 6 6 Z " fill="#E7E0D6" transform="translate(50,47)"/>
<path d="M0 0 C0.99 0 1.98 0 3 0 C3.56561146 5.65611463 1.71391278 9.22642128 -1 14 C-1.94602608 10.9148254 -2.01578237 8.50740993 -1.625 5.3125 C-1.53476563 4.52488281 -1.44453125 3.73726562 -1.3515625 2.92578125 C-1 1 -1 1 0 0 Z " fill="#B4A591" transform="translate(80,32)"/>
<path d="M0 0 C0 3 0 3 -0.984375 4.8828125 C-3.30153292 9.71319555 -2.37959527 15.62396715 -1 20.625 C-0.67 21.40875 -0.34 22.1925 0 23 C-0.99 22.67 -1.98 22.34 -3 22 C-5.36394765 17.27210469 -5.21764109 11.18809294 -5 6 C-3.66389755 3.12911816 -2.47771437 2.05468996 0 0 Z " fill="#AEA193" transform="translate(60,66)"/>
<path d="M0 0 C1.485 0.99 1.485 0.99 3 2 C3.34057617 4.98095703 3.34057617 4.98095703 3.29296875 8.7578125 C3.28872391 9.42086395 3.28447906 10.08391541 3.28010559 10.76705933 C3.26329971 12.88678441 3.22564701 15.00556188 3.1875 17.125 C3.17245549 18.56118419 3.15876668 19.99738328 3.14648438 21.43359375 C3.1133909 24.95603764 3.0615968 28.47792636 3 32 C2.67 32 2.34 32 2 32 C1.98018066 31.16750732 1.96036133 30.33501465 1.93994141 29.47729492 C1.86179258 26.385235 1.77509794 23.29356617 1.68261719 20.2019043 C1.62555908 18.2070464 1.57835558 16.2119146 1.53125 14.21679688 C1.49257812 12.96318359 1.45390625 11.70957031 1.4140625 10.41796875 C1.3826416 9.26063232 1.3512207 8.1032959 1.31884766 6.91088867 C1.20528967 3.80872972 1.20528967 3.80872972 -1 1 C-0.67 0.67 -0.34 0.34 0 0 Z " fill="#C7B9A7" transform="translate(87,62)"/>
<path d="M0 0 C7.99651568 -0.6271777 7.99651568 -0.6271777 12 1.875 C15.1457309 5.21733908 15.11478296 7.12866569 15.0625 11.625 C15.05347656 12.62789062 15.04445313 13.63078125 15.03515625 14.6640625 C15.02355469 15.43492188 15.01195312 16.20578125 15 17 C14.67 17 14.34 17 14 17 C13.97421875 16.40832031 13.9484375 15.81664062 13.921875 15.20703125 C13.64700894 11.37764733 13.26180431 8.51270012 11.5 5.0625 C7.9870297 2.1642995 4.43557639 1.63500773 0 1 C0 0.67 0 0.34 0 0 Z " fill="#AFA08E" transform="translate(42,36)"/>
<path d="M0 0 C1.4391134 0.28359887 2.87625518 0.57721399 4.3125 0.875 C5.11300781 1.03742188 5.91351563 1.19984375 6.73828125 1.3671875 C9 2 9 2 12 4 C7.15507803 5.51403812 3.7408989 4.36602172 -1 3 C-0.67 2.01 -0.34 1.02 0 0 Z " fill="#DBD0C4" transform="translate(66,68)"/>
<path d="M0 0 C3.25 -0.3125 3.25 -0.3125 7 0 C9.5 2.25 9.5 2.25 11 5 C10.75 7.3125 10.75 7.3125 10 9 C9.278125 8.030625 8.55625 7.06125 7.8125 6.0625 C5.86762407 3.70086494 5.2117465 3.06587669 2.1875 2.125 C1.465625 2.08375 0.74375 2.0425 0 2 C0 1.34 0 0.68 0 0 Z " fill="#94846F" transform="translate(42,37)"/>
<path d="M0 0 C0.99 0.33 1.98 0.66 3 1 C2.01 2.485 2.01 2.485 1 4 C0.34 4 -0.32 4 -1 4 C-1.144375 4.61875 -1.28875 5.2375 -1.4375 5.875 C-2 8 -2 8 -3 10 C-3.66 9.67 -4.32 9.34 -5 9 C-2.25 2.25 -2.25 2.25 0 0 Z " fill="#E8E2DA" transform="translate(54,70)"/>
<path d="M0 0 C3 3 3 3 3.1875 6.6875 C3.125625 7.780625 3.06375 8.87375 3 10 C2.01 9.67 1.02 9.34 0 9 C0 6.03 0 3.06 0 0 Z " fill="#E0D6CA" transform="translate(70,81)"/>
<path d="M0 0 C3.80984844 2.77079887 4.06840752 6.62868145 5 11 C4.01 11.495 4.01 11.495 3 12 C1.57499941 8.00999834 0.59924224 4.19469571 0 0 Z " fill="#A1907B" transform="translate(65,38)"/>
<path d="M0 0 C0.33 0.99 0.66 1.98 1 3 C-1.99531539 3.99843846 -3.17255732 4.00732761 -6.1875 3.5625 C-7.445625 3.376875 -8.70375 3.19125 -10 3 C-6.68152292 -0.06320961 -4.44849969 -0.3033068 0 0 Z " fill="#EEE7DE" transform="translate(80,63)"/>
<path d="M0 0 C0.66 0 1.32 0 2 0 C3.38938077 1.96147874 4.7260411 3.96166576 6 6 C3.69 5.34 1.38 4.68 -1 4 C-1 1 -1 1 0 0 Z " fill="#AB9A85" transform="translate(60,32)"/>
<path d="M0 0 C0.66 0 1.32 0 2 0 C2.33 2.97 2.66 5.94 3 9 C2.01 9 1.02 9 0 9 C0 6.03 0 3.06 0 0 Z " fill="#A08D76" transform="translate(74,82)"/>
<path d="M0 0 C-2.35968744 2.09749995 -3.54616994 2.96905704 -6.75 3.1875 C-7.86375 3.0946875 -7.86375 3.0946875 -9 3 C-9 2.34 -9 1.68 -9 1 C-2.25 -1.125 -2.25 -1.125 0 0 Z " fill="#E4DBD0" transform="translate(79,98)"/>
<path d="M0 0 C0 3.69418201 -1.28179295 5.77836178 -3 9 C-3.66 8.67 -4.32 8.34 -5 8 C-3.8141763 4.62496331 -2.72426311 2.35277269 0 0 Z " fill="#B9AD9E" transform="translate(60,66)"/>
</svg>
